<svg width="149" height="38" viewBox="0 0 149 38" fill="none" xmlns="http://www.w3.org/2000/svg">
<rect x="1.30827" y="1.30827" width="146.383" height="35.3835" stroke="#262626" stroke-width="2.61654"/>
<path d="M24.2069 28V11.2H32.1989L31.9589 12.88H26.2709V18.736H31.4789V20.416H26.2709V26.32H32.4389V28H24.2069ZM42.3426 28H40.2306L44.2146 11.2H47.7186L51.7026 28H49.5906L48.6066 23.752H43.3266L42.3426 28ZM48.1986 22.072L46.0386 12.736H45.8946L43.7106 22.072H48.1986ZM57.8181 12.88V11.2H66.9381V12.88H63.4101V28H61.3461V12.88H57.8181ZM75.3475 28V11.2H83.3395L83.0995 12.88H77.4115V18.736H82.6195V20.416H77.4115V26.32H83.5795V28H75.3475ZM96.3153 21.568H94.7553V28H92.6913V11.2H96.3153C98.2353 11.2 99.6033 11.592 100.419 12.376C101.235 13.144 101.643 14.48 101.643 16.384C101.643 17.696 101.451 18.736 101.067 19.504C100.699 20.256 100.107 20.792 99.2913 21.112L102.051 28H99.9393L97.2993 21.544C97.0913 21.56 96.7633 21.568 96.3153 21.568ZM99.5553 16.912V15.856C99.5553 15.408 99.5473 15.08 99.5313 14.872C99.5153 14.648 99.4513 14.384 99.3393 14.08C99.2433 13.776 99.0833 13.552 98.8593 13.408C98.2993 13.072 97.4593 12.904 96.3393 12.904H94.7553V19.864H96.3393C97.4593 19.864 98.2993 19.696 98.8593 19.36C99.0833 19.216 99.2433 18.992 99.3393 18.688C99.4513 18.384 99.5153 18.128 99.5313 17.92C99.5473 17.696 99.5553 17.36 99.5553 16.912ZM116.188 28H114.268V22.6L110.092 11.2H112.204L115.156 20.344H115.3L118.252 11.2H120.364L116.188 22.6V28Z" fill="#262626"/>
<path d="M24.2069 28H23.2069V29H24.2069V28ZM24.2069 11.2V10.2H23.2069V11.2H24.2069ZM32.1989 11.2L33.1888 11.3414L33.3519 10.2H32.1989V11.2ZM31.9589 12.88V13.88H32.8262L32.9488 13.0214L31.9589 12.88ZM26.2709 12.88V11.88H25.2709V12.88H26.2709ZM26.2709 18.736H25.2709V19.736H26.2709V18.736ZM31.4789 18.736H32.4789V17.736H31.4789V18.736ZM31.4789 20.416V21.416H32.4789V20.416H31.4789ZM26.2709 20.416V19.416H25.2709V20.416H26.2709ZM26.2709 26.32H25.2709V27.32H26.2709V26.32ZM32.4389 26.32H33.4389V25.32H32.4389V26.32ZM32.4389 28V29H33.4389V28H32.4389ZM25.2069 28V11.2H23.2069V28H25.2069ZM24.2069 12.2H32.1989V10.2H24.2069V12.2ZM31.2089 11.0586L30.9689 12.7386L32.9488 13.0214L33.1888 11.3414L31.2089 11.0586ZM31.9589 11.88H26.2709V13.88H31.9589V11.88ZM25.2709 12.88V18.736H27.2709V12.88H25.2709ZM26.2709 19.736H31.4789V17.736H26.2709V19.736ZM30.4789 18.736V20.416H32.4789V18.736H30.4789ZM31.4789 19.416H26.2709V21.416H31.4789V19.416ZM25.2709 20.416V26.32H27.2709V20.416H25.2709ZM26.2709 27.32H32.4389V25.32H26.2709V27.32ZM31.4389 26.32V28H33.4389V26.32H31.4389ZM32.4389 27H24.2069V29H32.4389V27ZM42.3426 28V29H43.1375L43.3168 28.2257L42.3426 28ZM40.2306 28L39.2576 27.7693L38.9657 29H40.2306V28ZM44.2146 11.2V10.2H43.424L43.2416 10.9693L44.2146 11.2ZM47.7186 11.2L48.6916 10.9693L48.5092 10.2H47.7186V11.2ZM51.7026 28V29H52.9675L52.6756 27.7693L51.7026 28ZM49.5906 28L48.6164 28.2257L48.7958 29H49.5906V28ZM48.6066 23.752L49.5808 23.5263L49.4015 22.752H48.6066V23.752ZM43.3266 23.752V22.752H42.5318L42.3524 23.5263L43.3266 23.752ZM48.1986 22.072V23.072H49.4564L49.1729 21.8466L48.1986 22.072ZM46.0386 12.736L47.0129 12.5106L46.8337 11.736H46.0386V12.736ZM45.8946 12.736V11.736H45.1016L44.9209 12.5082L45.8946 12.736ZM43.7106 22.072L42.7369 21.8442L42.4497 23.072H43.7106V22.072ZM42.3426 27H40.2306V29H42.3426V27ZM41.2036 28.2307L45.1876 11.4307L43.2416 10.9693L39.2576 27.7693L41.2036 28.2307ZM44.2146 12.2H47.7186V10.2H44.2146V12.2ZM46.7456 11.4307L50.7296 28.2307L52.6756 27.7693L48.6916 10.9693L46.7456 11.4307ZM51.7026 27H49.5906V29H51.7026V27ZM50.5648 27.7743L49.5808 23.5263L47.6324 23.9777L48.6164 28.2257L50.5648 27.7743ZM48.6066 22.752H43.3266V24.752H48.6066V22.752ZM42.3524 23.5263L41.3684 27.7743L43.3168 28.2257L44.3008 23.9777L42.3524 23.5263ZM49.1729 21.8466L47.0129 12.5106L45.0644 12.9614L47.2244 22.2974L49.1729 21.8466ZM46.0386 11.736H45.8946V13.736H46.0386V11.736ZM44.9209 12.5082L42.7369 21.8442L44.6843 22.2998L46.8683 12.9638L44.9209 12.5082ZM43.7106 23.072H48.1986V21.072H43.7106V23.072ZM57.8181 12.88H56.8181V13.88H57.8181V12.88ZM57.8181 11.2V10.2H56.8181V11.2H57.8181ZM66.9381 11.2H67.9381V10.2H66.9381V11.2ZM66.9381 12.88V13.88H67.9381V12.88H66.9381ZM63.4101 12.88V11.88H62.4101V12.88H63.4101ZM63.4101 28V29H64.4101V28H63.4101ZM61.3461 28H60.3461V29H61.3461V28ZM61.3461 12.88H62.3461V11.88H61.3461V12.88ZM58.8181 12.88V11.2H56.8181V12.88H58.8181ZM57.8181 12.2H66.9381V10.2H57.8181V12.2ZM65.9381 11.2V12.88H67.9381V11.2H65.9381ZM66.9381 11.88H63.4101V13.88H66.9381V11.88ZM62.4101 12.88V28H64.4101V12.88H62.4101ZM63.4101 27H61.3461V29H63.4101V27ZM62.3461 28V12.88H60.3461V28H62.3461ZM61.3461 11.88H57.8181V13.88H61.3461V11.88ZM75.3475 28H74.3475V29H75.3475V28ZM75.3475 11.2V10.2H74.3475V11.2H75.3475ZM83.3395 11.2L84.3294 11.3414L84.4925 10.2H83.3395V11.2ZM83.0995 12.88V13.88H83.9668L84.0894 13.0214L83.0995 12.88ZM77.4115 12.88V11.88H76.4115V12.88H77.4115ZM77.4115 18.736H76.4115V19.736H77.4115V18.736ZM82.6195 18.736H83.6195V17.736H82.6195V18.736ZM82.6195 20.416V21.416H83.6195V20.416H82.6195ZM77.4115 20.416V19.416H76.4115V20.416H77.4115ZM77.4115 26.32H76.4115V27.32H77.4115V26.32ZM83.5795 26.32H84.5795V25.32H83.5795V26.32ZM83.5795 28V29H84.5795V28H83.5795ZM76.3475 28V11.2H74.3475V28H76.3475ZM75.3475 12.2H83.3395V10.2H75.3475V12.2ZM82.3496 11.0586L82.1096 12.7386L84.0894 13.0214L84.3294 11.3414L82.3496 11.0586ZM83.0995 11.88H77.4115V13.88H83.0995V11.88ZM76.4115 12.88V18.736H78.4115V12.88H76.4115ZM77.4115 19.736H82.6195V17.736H77.4115V19.736ZM81.6195 18.736V20.416H83.6195V18.736H81.6195ZM82.6195 19.416H77.4115V21.416H82.6195V19.416ZM76.4115 20.416V26.32H78.4115V20.416H76.4115ZM77.4115 27.32H83.5795V25.32H77.4115V27.32ZM82.5795 26.32V28H84.5795V26.32H82.5795ZM83.5795 27H75.3475V29H83.5795V27ZM94.7553 21.568V20.568H93.7553V21.568H94.7553ZM94.7553 28V29H95.7553V28H94.7553ZM92.6913 28H91.6913V29H92.6913V28ZM92.6913 11.2V10.2H91.6913V11.2H92.6913ZM100.419 12.376L99.7264 13.0971L99.7339 13.1042L100.419 12.376ZM101.067 19.504L100.173 19.0568L100.169 19.0644L101.067 19.504ZM99.2913 21.112L98.9262 20.181L97.9883 20.5488L98.363 21.4839L99.2913 21.112ZM102.051 28V29H103.529L102.98 27.6281L102.051 28ZM99.9393 28L99.0136 28.3785L99.2678 29H99.9393V28ZM97.2993 21.544L98.2249 21.1655L97.9491 20.4911L97.2226 20.5469L97.2993 21.544ZM99.5313 14.872L98.5338 14.9432L98.5342 14.9487L99.5313 14.872ZM99.3393 14.08L98.3857 14.3811L98.3928 14.4036L98.4009 14.4257L99.3393 14.08ZM98.8593 13.408L99.4 12.5668L99.387 12.5585L99.3737 12.5505L98.8593 13.408ZM94.7553 12.904V11.904H93.7553V12.904H94.7553ZM94.7553 19.864H93.7553V20.864H94.7553V19.864ZM98.8593 19.36L99.3737 20.2175L99.387 20.2095L99.4 20.2012L98.8593 19.36ZM99.3393 18.688L98.4009 18.3423L98.3928 18.3644L98.3857 18.3869L99.3393 18.688ZM99.5313 17.92L100.528 17.9967L100.529 17.9912L99.5313 17.92ZM96.3153 20.568H94.7553V22.568H96.3153V20.568ZM93.7553 21.568V28H95.7553V21.568H93.7553ZM94.7553 27H92.6913V29H94.7553V27ZM93.6913 28V11.2H91.6913V28H93.6913ZM92.6913 12.2H96.3153V10.2H92.6913V12.2ZM96.3153 12.2C98.1448 12.2 99.1901 12.5818 99.7264 13.0971L101.112 11.6549C100.016 10.6022 98.3257 10.2 96.3153 10.2V12.2ZM99.7339 13.1042C100.247 13.5868 100.643 14.5733 100.643 16.384H102.643C102.643 14.3867 102.224 12.7012 101.105 11.6478L99.7339 13.1042ZM100.643 16.384C100.643 17.6153 100.46 18.4817 100.173 19.0568L101.962 19.9512C102.442 18.9903 102.643 17.7767 102.643 16.384H100.643ZM100.169 19.0644C99.9166 19.5804 99.5212 19.9477 98.9262 20.181L99.6563 22.043C100.693 21.6363 101.482 20.9316 101.965 19.9436L100.169 19.0644ZM98.363 21.4839L101.123 28.3719L102.98 27.6281L100.22 20.7401L98.363 21.4839ZM102.051 27H99.9393V29H102.051V27ZM100.865 27.6215L98.2249 21.1655L96.3736 21.9225L99.0136 28.3785L100.865 27.6215ZM97.2226 20.5469C97.0553 20.5598 96.7597 20.568 96.3153 20.568V22.568C96.7668 22.568 97.1272 22.5602 97.3759 22.5411L97.2226 20.5469ZM100.555 16.912V15.856H98.5553V16.912H100.555ZM100.555 15.856C100.555 15.4045 100.547 15.0441 100.528 14.7953L98.5342 14.9487C98.5471 15.1159 98.5553 15.4115 98.5553 15.856H100.555ZM100.529 14.8008C100.504 14.4516 100.409 14.0911 100.278 13.7343L98.4009 14.4257C98.4934 14.6768 98.5267 14.8444 98.5338 14.9432L100.529 14.8008ZM100.293 13.7789C100.141 13.298 99.8574 12.8608 99.4 12.5668L98.3185 14.2492C98.3202 14.2503 98.3247 14.2529 98.3335 14.2652C98.3437 14.2795 98.3644 14.3138 98.3857 14.3811L100.293 13.7789ZM99.3737 12.5505C98.5834 12.0763 97.5266 11.904 96.3393 11.904V13.904C97.3919 13.904 98.0151 14.0677 98.3448 14.2655L99.3737 12.5505ZM96.3393 11.904H94.7553V13.904H96.3393V11.904ZM93.7553 12.904V19.864H95.7553V12.904H93.7553ZM94.7553 20.864H96.3393V18.864H94.7553V20.864ZM96.3393 20.864C97.5266 20.864 98.5834 20.6917 99.3737 20.2175L98.3448 18.5025C98.0151 18.7003 97.3919 18.864 96.3393 18.864V20.864ZM99.4 20.2012C99.8574 19.9072 100.141 19.47 100.293 18.9891L98.3857 18.3869C98.3644 18.4542 98.3437 18.4885 98.3335 18.5028C98.3247 18.5151 98.3202 18.5177 98.3185 18.5188L99.4 20.2012ZM100.278 19.0337C100.406 18.6853 100.502 18.3327 100.528 17.9967L98.5342 17.8433C98.528 17.9233 98.4965 18.0827 98.4009 18.3423L100.278 19.0337ZM100.529 17.9912C100.547 17.7304 100.555 17.3653 100.555 16.912H98.5553C98.5553 17.3547 98.5472 17.6616 98.5338 17.8488L100.529 17.9912ZM116.188 28V29H117.188V28H116.188ZM114.268 28H113.268V29H114.268V28ZM114.268 22.6H115.268V22.4226L115.207 22.256L114.268 22.6ZM110.092 11.2V10.2H108.661L109.153 11.544L110.092 11.2ZM112.204 11.2L113.156 10.8928L112.932 10.2H112.204V11.2ZM115.156 20.344L114.205 20.6512L114.428 21.344H115.156V20.344ZM115.3 20.344V21.344H116.028L116.252 20.6512L115.3 20.344ZM118.252 11.2V10.2H117.524L117.301 10.8928L118.252 11.2ZM120.364 11.2L121.303 11.544L121.795 10.2H120.364V11.2ZM116.188 22.6L115.249 22.256L115.188 22.4226V22.6H116.188ZM116.188 27H114.268V29H116.188V27ZM115.268 28V22.6H113.268V28H115.268ZM115.207 22.256L111.031 10.856L109.153 11.544L113.329 22.944L115.207 22.256ZM110.092 12.2H112.204V10.2H110.092V12.2ZM111.253 11.5072L114.205 20.6512L116.108 20.0368L113.156 10.8928L111.253 11.5072ZM115.156 21.344H115.3V19.344H115.156V21.344ZM116.252 20.6512L119.204 11.5072L117.301 10.8928L114.349 20.0368L116.252 20.6512ZM118.252 12.2H120.364V10.2H118.252V12.2ZM119.425 10.856L115.249 22.256L117.127 22.944L121.303 11.544L119.425 10.856ZM115.188 22.6V28H117.188V22.6H115.188Z" fill="black"/>
</svg>
