<svg width="116" height="50" viewBox="0 0 116 50" fill="none" xmlns="http://www.w3.org/2000/svg">
<rect x="1.30827" y="1.30827" width="113.383" height="40.1203" stroke="#262626" stroke-width="2.61654"/>
<path d="M17.9834 17.928V20.4C19.6154 20.4 20.5834 20.344 20.8874 20.232C21.2074 20.104 21.4874 19.976 21.7274 19.848C22.1594 19.624 22.3754 19.184 22.3754 18.528V17.976C22.3754 17.192 22.2554 16.64 22.0154 16.32C21.7754 16 21.1994 15.84 20.2874 15.84C19.3914 15.84 18.7834 16.024 18.4634 16.392C18.1434 16.744 17.9834 17.256 17.9834 17.928ZM18.1994 14.568C18.4714 14.44 18.7834 14.36 19.1354 14.328C19.4874 14.28 19.9834 14.256 20.6234 14.256C21.2794 14.256 21.8874 14.344 22.4474 14.52C23.0074 14.696 23.4154 14.976 23.6714 15.36C23.9434 15.728 24.1194 16.112 24.1994 16.512C24.2954 16.896 24.3434 17.344 24.3434 17.856C24.3434 18.352 24.3114 18.768 24.2474 19.104C24.1834 19.424 24.1034 19.704 24.0074 19.944C23.9274 20.184 23.7834 20.4 23.5754 20.592C23.3834 20.768 23.1994 20.92 23.0234 21.048C22.8634 21.176 22.6154 21.288 22.2794 21.384C21.9594 21.464 21.6794 21.528 21.4394 21.576C21.1994 21.624 20.8554 21.664 20.4074 21.696C19.7354 21.744 18.9274 21.768 17.9834 21.768V23.568C17.9834 24.4 18.1594 24.968 18.5114 25.272C18.8634 25.56 19.3994 25.704 20.1194 25.704C21.4474 25.704 22.6394 25.48 23.6954 25.032L24.0794 26.232C22.8794 26.936 21.5514 27.288 20.0954 27.288C19.3274 27.288 18.7034 27.2 18.2234 27.024C17.7594 26.864 17.4234 26.68 17.2154 26.472C17.0234 26.264 16.8554 26.072 16.7114 25.896C16.5674 25.72 16.4474 25.464 16.3514 25.128C16.2714 24.792 16.2074 24.504 16.1594 24.264C16.1114 24.008 16.0794 23.656 16.0634 23.208C16.0154 22.44 15.9914 21.72 15.9914 21.048V19.608C15.9914 18.76 16.0234 18.152 16.0874 17.784C16.1514 17.416 16.2154 17.072 16.2794 16.752C16.3434 16.416 16.4314 16.168 16.5434 16.008C16.6554 15.832 16.7834 15.632 16.9274 15.408C17.0874 15.184 17.2714 15.016 17.4794 14.904C17.7034 14.792 17.9434 14.68 18.1994 14.568ZM41.6603 27H40.5803L40.2683 25.824C39.8843 26.256 39.4523 26.592 38.9723 26.832C38.4923 27.056 38.0923 27.184 37.7723 27.216C37.4523 27.264 36.9963 27.288 36.4043 27.288C35.8283 27.288 35.3163 27.184 34.8683 26.976C34.4203 26.768 34.0843 26.456 33.8603 26.04C33.5083 25.368 33.3323 24.464 33.3323 23.328C33.3323 21.888 33.7483 20.952 34.5803 20.52C34.9163 20.36 35.2123 20.232 35.4683 20.136C35.7403 20.04 36.1403 19.968 36.6683 19.92C37.2123 19.872 37.6683 19.848 38.0363 19.848C38.4203 19.832 38.9723 19.816 39.6923 19.8V18C39.6923 17.168 39.5163 16.608 39.1643 16.32C38.8123 16.016 38.1723 15.864 37.2443 15.864C36.3163 15.864 35.3083 16.04 34.2203 16.392L33.8363 15.192C35.0843 14.584 36.4043 14.28 37.7963 14.28C39.4603 14.28 40.5323 14.616 41.0123 15.288C41.2683 15.656 41.4363 16.04 41.5163 16.44C41.6123 16.84 41.6603 17.36 41.6603 18V27ZM39.6923 23.64V21.168C38.0603 21.168 37.0843 21.232 36.7643 21.36C36.4603 21.472 36.1883 21.592 35.9483 21.72C35.5163 21.944 35.3003 22.384 35.3003 23.04V23.592C35.3003 24.376 35.4203 24.928 35.6603 25.248C35.9003 25.568 36.4683 25.728 37.3643 25.728C38.2763 25.728 38.8923 25.552 39.2123 25.2C39.5323 24.832 39.6923 24.312 39.6923 23.64ZM54.454 12.36V14.52H56.662V15.936H54.454V24C54.454 24.688 54.526 25.176 54.67 25.464C54.814 25.752 55.086 25.896 55.486 25.896C55.886 25.896 56.246 25.864 56.566 25.8L56.734 27C56.158 27.192 55.606 27.288 55.078 27.288C54.566 27.288 54.142 27.232 53.806 27.12C53.486 27.008 53.238 26.872 53.062 26.712C52.886 26.552 52.75 26.312 52.654 25.992C52.542 25.56 52.486 24.896 52.486 24V15.936H50.782V14.88L52.486 14.52L53.566 12.36H54.454ZM67.4834 17.928V20.4C69.1154 20.4 70.0834 20.344 70.3874 20.232C70.7074 20.104 70.9874 19.976 71.2274 19.848C71.6594 19.624 71.8754 19.184 71.8754 18.528V17.976C71.8754 17.192 71.7554 16.64 71.5154 16.32C71.2754 16 70.6994 15.84 69.7874 15.84C68.8914 15.84 68.2834 16.024 67.9634 16.392C67.6434 16.744 67.4834 17.256 67.4834 17.928ZM67.6994 14.568C67.9714 14.44 68.2834 14.36 68.6354 14.328C68.9874 14.28 69.4834 14.256 70.1234 14.256C70.7794 14.256 71.3874 14.344 71.9474 14.52C72.5074 14.696 72.9154 14.976 73.1714 15.36C73.4434 15.728 73.6194 16.112 73.6994 16.512C73.7954 16.896 73.8434 17.344 73.8434 17.856C73.8434 18.352 73.8114 18.768 73.7474 19.104C73.6834 19.424 73.6034 19.704 73.5074 19.944C73.4274 20.184 73.2834 20.4 73.0754 20.592C72.8834 20.768 72.6994 20.92 72.5234 21.048C72.3634 21.176 72.1154 21.288 71.7794 21.384C71.4594 21.464 71.1794 21.528 70.9394 21.576C70.6994 21.624 70.3554 21.664 69.9074 21.696C69.2354 21.744 68.4274 21.768 67.4834 21.768V23.568C67.4834 24.4 67.6594 24.968 68.0114 25.272C68.3634 25.56 68.8994 25.704 69.6194 25.704C70.9474 25.704 72.1394 25.48 73.1954 25.032L73.5794 26.232C72.3794 26.936 71.0514 27.288 69.5954 27.288C68.8274 27.288 68.2034 27.2 67.7234 27.024C67.2594 26.864 66.9234 26.68 66.7154 26.472C66.5234 26.264 66.3554 26.072 66.2114 25.896C66.0674 25.72 65.9474 25.464 65.8514 25.128C65.7714 24.792 65.7074 24.504 65.6594 24.264C65.6114 24.008 65.5794 23.656 65.5634 23.208C65.5154 22.44 65.4914 21.72 65.4914 21.048V19.608C65.4914 18.76 65.5234 18.152 65.5874 17.784C65.6514 17.416 65.7154 17.072 65.7794 16.752C65.8434 16.416 65.9314 16.168 66.0434 16.008C66.1554 15.832 66.2834 15.632 66.4274 15.408C66.5874 15.184 66.7714 15.016 66.9794 14.904C67.2034 14.792 67.4434 14.68 67.6994 14.568ZM85.2803 27H83.3123V14.52H84.3923L84.7763 15.984C85.9443 14.848 87.3363 14.272 88.9523 14.256L88.7603 15.984C87.3043 15.984 86.1443 16.416 85.2803 17.28V27ZM96.2782 29.928C96.7102 30.024 97.1822 30.072 97.6942 30.072C98.2062 30.072 98.6462 29.928 99.0142 29.64C99.3982 29.368 99.6782 28.872 99.8542 28.152L100.118 27H98.7742L95.8702 14.52H97.8142L100.286 25.704H100.43L102.902 14.52H104.846L101.678 28.08C101.406 29.248 100.966 30.136 100.358 30.744C99.7662 31.352 98.8142 31.656 97.5022 31.656C96.8942 31.656 96.3422 31.544 95.8462 31.32L96.2782 29.928Z" fill="#262626"/>
<path d="M17.9834 20.4H16.9834V21.4H17.9834V20.4ZM20.8874 20.232L21.2331 21.1703L21.246 21.1656L21.2588 21.1605L20.8874 20.232ZM21.7274 19.848L21.2671 18.9602L21.2568 18.9656L21.7274 19.848ZM22.0154 16.32L21.2154 16.92L21.2154 16.92L22.0154 16.32ZM18.4634 16.392L19.2033 17.0647L19.2108 17.0565L19.218 17.0482L18.4634 16.392ZM18.1994 14.568L18.6002 15.4842L18.6128 15.4787L18.6252 15.4728L18.1994 14.568ZM19.1354 14.328L19.2259 15.3239L19.2483 15.3219L19.2705 15.3188L19.1354 14.328ZM22.4474 14.52L22.7472 13.566L22.7472 13.566L22.4474 14.52ZM23.6714 15.36L22.8394 15.9147L22.8528 15.9349L22.8672 15.9544L23.6714 15.36ZM24.1994 16.512L23.2188 16.7081L23.2235 16.7314L23.2293 16.7545L24.1994 16.512ZM24.2474 19.104L25.228 19.3001L25.2297 19.2911L24.2474 19.104ZM24.0074 19.944L23.0789 19.5726L23.068 19.5999L23.0587 19.6278L24.0074 19.944ZM23.5754 20.592L24.2511 21.3292L24.2537 21.3268L23.5754 20.592ZM23.0234 21.048L22.4352 20.2393L22.4167 20.2528L22.3987 20.2671L23.0234 21.048ZM22.2794 21.384L22.5219 22.3541L22.5381 22.3501L22.5541 22.3455L22.2794 21.384ZM21.4394 21.576L21.6355 22.5566L21.6355 22.5566L21.4394 21.576ZM20.4074 21.696L20.3362 20.6985L20.3362 20.6985L20.4074 21.696ZM17.9834 21.768V20.768H16.9834V21.768H17.9834ZM18.5114 25.272L17.8578 26.0288L17.8679 26.0375L17.8782 26.046L18.5114 25.272ZM23.6954 25.032L24.6478 24.7272L24.3138 23.6834L23.3049 24.1114L23.6954 25.032ZM24.0794 26.232L24.5854 27.0945L25.2758 26.6895L25.0318 25.9272L24.0794 26.232ZM18.2234 27.024L18.5677 26.0851L18.5586 26.0818L18.5494 26.0786L18.2234 27.024ZM17.2154 26.472L16.4806 27.1503L16.4942 27.165L16.5083 27.1791L17.2154 26.472ZM16.7114 25.896L17.4854 25.2628L17.4854 25.2628L16.7114 25.896ZM16.3514 25.128L15.3786 25.3596L15.3838 25.3813L15.3899 25.4027L16.3514 25.128ZM16.1594 24.264L15.1765 24.4483L15.1788 24.4601L16.1594 24.264ZM16.0634 23.208L17.0628 23.1723L17.0623 23.159L17.0615 23.1456L16.0634 23.208ZM16.0874 17.784L17.0726 17.9553L17.0726 17.9553L16.0874 17.784ZM16.2794 16.752L17.26 16.9481L17.2617 16.9391L16.2794 16.752ZM16.5434 16.008L17.3626 16.5815L17.3753 16.5634L17.3871 16.5449L16.5434 16.008ZM16.9274 15.408L16.1137 14.8268L16.0995 14.8467L16.0862 14.8672L16.9274 15.408ZM17.4794 14.904L17.0322 14.0096L17.0186 14.0163L17.0053 14.0235L17.4794 14.904ZM16.9834 17.928V20.4H18.9834V17.928H16.9834ZM17.9834 21.4C18.8076 21.4 19.4794 21.3859 19.9912 21.3563C20.4492 21.3298 20.9183 21.2863 21.2331 21.1703L20.5417 19.2937C20.5525 19.2897 20.3856 19.3302 19.8757 19.3597C19.4194 19.3861 18.7912 19.4 17.9834 19.4V21.4ZM21.2588 21.1605C21.6042 21.0223 21.9186 20.8793 22.198 20.7304L21.2568 18.9656C21.0562 19.0727 20.8106 19.1857 20.516 19.3035L21.2588 21.1605ZM22.1877 20.7358C23.0664 20.2801 23.3754 19.4071 23.3754 18.528H21.3754C21.3754 18.7525 21.3376 18.8648 21.3157 18.9093C21.3012 18.9389 21.2918 18.9474 21.2671 18.9602L22.1877 20.7358ZM23.3754 18.528V17.976H21.3754V18.528H23.3754ZM23.3754 17.976C23.3754 17.1511 23.2612 16.3144 22.8154 15.72L21.2154 16.92C21.2496 16.9656 21.3754 17.2329 21.3754 17.976H23.3754ZM22.8154 15.72C22.5117 15.315 22.0713 15.1077 21.6711 14.9965C21.263 14.8831 20.7917 14.84 20.2874 14.84V16.84C20.6951 16.84 20.9679 16.8769 21.1358 16.9235C21.3115 16.9723 21.2791 17.005 21.2154 16.92L22.8154 15.72ZM20.2874 14.84C19.3259 14.84 18.328 15.0237 17.7088 15.7358L19.218 17.0482C19.2388 17.0243 19.4569 16.84 20.2874 16.84V14.84ZM17.7235 15.7193C17.1781 16.3192 16.9834 17.1096 16.9834 17.928H18.9834C18.9834 17.4024 19.1087 17.1688 19.2033 17.0647L17.7235 15.7193ZM18.6252 15.4728C18.7749 15.4024 18.9702 15.3471 19.2259 15.3239L19.0449 13.3321C18.5966 13.3729 18.1679 13.4776 17.7736 13.6632L18.6252 15.4728ZM19.2705 15.3188C19.5557 15.2799 19.9989 15.256 20.6234 15.256V13.256C19.9679 13.256 19.4191 13.2801 19.0003 13.3372L19.2705 15.3188ZM20.6234 15.256C21.1895 15.256 21.6953 15.3318 22.1476 15.474L22.7472 13.566C22.0796 13.3562 21.3693 13.256 20.6234 13.256V15.256ZM22.1476 15.474C22.5501 15.6005 22.7411 15.7673 22.8394 15.9147L24.5035 14.8053C24.0897 14.1847 23.4647 13.7915 22.7472 13.566L22.1476 15.474ZM22.8672 15.9544C23.0626 16.2187 23.171 16.4689 23.2188 16.7081L25.18 16.3159C25.0678 15.7551 24.8242 15.2373 24.4756 14.7656L22.8672 15.9544ZM23.2293 16.7545C23.3006 17.04 23.3434 17.4032 23.3434 17.856H25.3434C25.3434 17.2848 25.2902 16.752 25.1695 16.2695L23.2293 16.7545ZM23.3434 17.856C23.3434 18.3146 23.3134 18.6633 23.2651 18.9169L25.2297 19.2911C25.3094 18.8727 25.3434 18.3894 25.3434 17.856H23.3434ZM23.2668 18.9079C23.2118 19.1828 23.1473 19.4018 23.0789 19.5726L24.9359 20.3154C25.0596 20.0062 25.155 19.6652 25.228 19.3001L23.2668 18.9079ZM23.0587 19.6278C23.0382 19.6893 22.9961 19.7658 22.8971 19.8572L24.2537 21.3268C24.5707 21.0342 24.8166 20.6787 24.9561 20.2602L23.0587 19.6278ZM22.8997 19.8548C22.7303 20.0101 22.5755 20.1373 22.4352 20.2393L23.6116 21.8567C23.8233 21.7027 24.0365 21.5259 24.2511 21.3292L22.8997 19.8548ZM22.3987 20.2671C22.4013 20.265 22.3769 20.2845 22.3058 20.3166C22.2365 20.3479 22.1383 20.3843 22.0047 20.4225L22.5541 22.3455C22.9403 22.2352 23.3363 22.0783 23.6481 21.8289L22.3987 20.2671ZM22.0369 20.4139C21.7274 20.4912 21.4635 20.5514 21.2433 20.5954L21.6355 22.5566C21.8953 22.5046 22.1915 22.4368 22.5219 22.3541L22.0369 20.4139ZM21.2433 20.5954C21.0653 20.631 20.7706 20.6675 20.3362 20.6985L20.4787 22.6935C20.9402 22.6605 21.3335 22.617 21.6355 22.5566L21.2433 20.5954ZM20.3362 20.6985C19.6951 20.7443 18.9122 20.768 17.9834 20.768V22.768C18.9426 22.768 19.7757 22.7437 20.4787 22.6935L20.3362 20.6985ZM16.9834 21.768V23.568H18.9834V21.768H16.9834ZM16.9834 23.568C16.9834 24.4758 17.1634 25.4291 17.8578 26.0288L19.165 24.5152C19.1554 24.5069 18.9834 24.3242 18.9834 23.568H16.9834ZM17.8782 26.046C18.4869 26.544 19.2951 26.704 20.1194 26.704V24.704C19.5037 24.704 19.2399 24.576 19.1446 24.498L17.8782 26.046ZM20.1194 26.704C21.5606 26.704 22.8885 26.4606 24.086 25.9526L23.3049 24.1114C22.3903 24.4994 21.3342 24.704 20.1194 24.704V26.704ZM22.743 25.3368L23.127 26.5368L25.0318 25.9272L24.6478 24.7272L22.743 25.3368ZM23.5734 25.3695C22.5341 25.9792 21.3821 26.288 20.0954 26.288V28.288C21.7207 28.288 23.2247 27.8928 24.5854 27.0945L23.5734 25.3695ZM20.0954 26.288C19.3918 26.288 18.8967 26.2058 18.5677 26.0851L17.8792 27.9629C18.5102 28.1942 19.263 28.288 20.0954 28.288V26.288ZM18.5494 26.0786C18.1449 25.9391 17.9744 25.8168 17.9225 25.7649L16.5083 27.1791C16.8724 27.5432 17.3739 27.7889 17.8974 27.9694L18.5494 26.0786ZM17.9502 25.7937C17.7686 25.597 17.6142 25.4202 17.4854 25.2628L15.9374 26.5292C16.0966 26.7238 16.2782 26.931 16.4806 27.1503L17.9502 25.7937ZM17.4854 25.2628C17.4613 25.2334 17.3895 25.1214 17.3129 24.8533L15.3899 25.4027C15.5053 25.8066 15.6735 26.2066 15.9374 26.5292L17.4854 25.2628ZM17.3242 24.8964C17.246 24.5678 17.1849 24.2923 17.14 24.0679L15.1788 24.4601C15.2299 24.7157 15.2968 25.0162 15.3786 25.3596L17.3242 24.8964ZM17.1423 24.0797C17.1077 23.8954 17.0781 23.6005 17.0628 23.1723L15.064 23.2437C15.0808 23.7115 15.1151 24.1206 15.1765 24.4483L17.1423 24.0797ZM17.0615 23.1456C17.0146 22.3955 16.9914 21.6965 16.9914 21.048H14.9914C14.9914 21.7435 15.0162 22.4845 15.0654 23.2704L17.0615 23.1456ZM16.9914 21.048V19.608H14.9914V21.048H16.9914ZM16.9914 19.608C16.9914 18.7639 17.0246 18.2312 17.0726 17.9553L15.1022 17.6127C15.0222 18.0728 14.9914 18.7561 14.9914 19.608H16.9914ZM17.0726 17.9553C17.1354 17.5945 17.1978 17.2588 17.26 16.9481L15.2988 16.5559C15.233 16.8852 15.1674 17.2375 15.1022 17.6127L17.0726 17.9553ZM17.2617 16.9391C17.2869 16.8072 17.313 16.7126 17.3358 16.6484C17.3594 16.5819 17.3726 16.5672 17.3626 16.5815L15.7242 15.4345C15.4916 15.7667 15.3706 16.179 15.2971 16.5649L17.2617 16.9391ZM17.3871 16.5449C17.4981 16.3705 17.6252 16.1718 17.7686 15.9488L16.0862 14.8672C15.9416 15.0922 15.8128 15.2935 15.6997 15.4711L17.3871 16.5449ZM17.7411 15.9892C17.8269 15.8691 17.9007 15.8129 17.9535 15.7845L17.0053 14.0235C16.6422 14.2191 16.3479 14.4989 16.1137 14.8268L17.7411 15.9892ZM17.9266 15.7984C18.1337 15.6949 18.3581 15.5901 18.6002 15.4842L17.7986 13.6518C17.5287 13.7699 17.2731 13.8891 17.0322 14.0096L17.9266 15.7984ZM41.6603 27V28H42.6603V27H41.6603ZM40.5803 27L39.6138 27.2564L39.8111 28H40.5803V27ZM40.2683 25.824L41.2349 25.5676L40.7576 23.7684L39.5209 25.1596L40.2683 25.824ZM38.9723 26.832L39.3952 27.7382L39.4075 27.7325L39.4196 27.7264L38.9723 26.832ZM37.7723 27.216L37.6728 26.221L37.6483 26.2234L37.624 26.2271L37.7723 27.216ZM34.8683 26.976L34.4472 27.883L34.8683 26.976ZM33.8603 26.04L32.9745 26.504L32.9799 26.5141L33.8603 26.04ZM34.5803 20.52L34.1504 19.6171L34.1348 19.6246L34.1195 19.6325L34.5803 20.52ZM35.4683 20.136L35.1355 19.193L35.1263 19.1963L35.1172 19.1997L35.4683 20.136ZM36.6683 19.92L36.5805 18.9239L36.5778 18.9241L36.6683 19.92ZM38.0363 19.848V20.848H38.0572L38.078 20.8471L38.0363 19.848ZM39.6923 19.8L39.7146 20.7998L40.6923 20.778V19.8H39.6923ZM39.1643 16.32L38.5107 17.0768L38.5208 17.0855L38.5311 17.094L39.1643 16.32ZM34.2203 16.392L33.2679 16.6968L33.5737 17.6522L34.5282 17.3434L34.2203 16.392ZM33.8363 15.192L33.3984 14.293L32.6201 14.6722L32.8839 15.4968L33.8363 15.192ZM41.0123 15.288L41.8333 14.7169L41.8261 14.7068L41.0123 15.288ZM41.5163 16.44L40.5358 16.6361L40.5395 16.6548L40.544 16.6734L41.5163 16.44ZM39.6923 21.168H40.6923V20.168H39.6923V21.168ZM36.7643 21.36L37.11 22.2983L37.123 22.2936L37.1357 22.2885L36.7643 21.36ZM35.9483 21.72L36.4087 22.6078L36.4189 22.6024L35.9483 21.72ZM35.6603 25.248L36.4603 24.648L36.4603 24.648L35.6603 25.248ZM39.2123 25.2L39.9523 25.8727L39.9597 25.8645L39.967 25.8562L39.2123 25.2ZM41.6603 26H40.5803V28H41.6603V26ZM41.5469 26.7436L41.2349 25.5676L39.3018 26.0804L39.6138 27.2564L41.5469 26.7436ZM39.5209 25.1596C39.2149 25.5039 38.8828 25.7587 38.5251 25.9376L39.4196 27.7264C40.0219 27.4253 40.5538 27.0081 41.0158 26.4884L39.5209 25.1596ZM38.5495 25.9258C38.1143 26.1289 37.8317 26.2051 37.6728 26.221L37.8718 28.211C38.353 28.1629 38.8703 27.9831 39.3952 27.7382L38.5495 25.9258ZM37.624 26.2271C37.3778 26.264 36.9802 26.288 36.4043 26.288V28.288C37.0125 28.288 37.5269 28.264 37.9207 28.2049L37.624 26.2271ZM36.4043 26.288C35.9498 26.288 35.5853 26.2064 35.2895 26.069L34.4472 27.883C35.0473 28.1616 35.7069 28.288 36.4043 28.288V26.288ZM35.2895 26.069C35.0278 25.9475 34.8576 25.7828 34.7408 25.5659L32.9799 26.5141C33.3111 27.1292 33.8129 27.5885 34.4472 27.883L35.2895 26.069ZM34.7462 25.576C34.4973 25.1008 34.3323 24.3763 34.3323 23.328H32.3323C32.3323 24.5517 32.5194 25.6352 32.9745 26.504L34.7462 25.576ZM34.3323 23.328C34.3323 22.0417 34.6982 21.5856 35.0412 21.4075L34.1195 19.6325C32.7985 20.3184 32.3323 21.7343 32.3323 23.328H34.3323ZM35.0103 21.4229C35.329 21.2711 35.5978 21.1555 35.8195 21.0723L35.1172 19.1997C34.8269 19.3085 34.5037 19.4489 34.1504 19.6171L35.0103 21.4229ZM35.8012 21.079C35.9551 21.0247 36.2569 20.9615 36.7589 20.9159L36.5778 18.9241C36.0238 18.9745 35.5256 19.0553 35.1355 19.193L35.8012 21.079ZM36.7562 20.9161C37.2835 20.8696 37.708 20.848 38.0363 20.848V18.848C37.6287 18.848 37.1412 18.8744 36.5805 18.9239L36.7562 20.9161ZM38.078 20.8471C38.4522 20.8315 38.9965 20.8157 39.7146 20.7998L39.6701 18.8002C38.9482 18.8163 38.3885 18.8325 37.9947 18.8489L38.078 20.8471ZM40.6923 19.8V18H38.6923V19.8H40.6923ZM40.6923 18C40.6923 17.1007 40.5159 16.1338 39.7976 15.546L38.5311 17.094C38.5181 17.0833 38.56 17.1083 38.6064 17.2558C38.6541 17.4077 38.6923 17.6469 38.6923 18H40.6923ZM39.818 15.5632C39.1741 15.0071 38.2089 14.864 37.2443 14.864V16.864C38.1358 16.864 38.4506 17.0249 38.5107 17.0768L39.818 15.5632ZM37.2443 14.864C36.1908 14.864 35.0778 15.0636 33.9125 15.4406L34.5282 17.3434C35.5389 17.0164 36.4419 16.864 37.2443 16.864V14.864ZM35.1728 16.0872L34.7888 14.8872L32.8839 15.4968L33.2679 16.6968L35.1728 16.0872ZM34.2743 16.091C35.3855 15.5496 36.5557 15.28 37.7963 15.28V13.28C36.253 13.28 34.7832 13.6184 33.3984 14.293L34.2743 16.091ZM37.7963 15.28C38.5708 15.28 39.1445 15.3594 39.5493 15.4862C39.9515 15.6123 40.1236 15.7642 40.1986 15.8692L41.8261 14.7068C41.4211 14.1398 40.8172 13.7877 40.1474 13.5778C39.4801 13.3686 38.6859 13.28 37.7963 13.28V15.28ZM40.1914 15.8591C40.3769 16.1256 40.4852 16.3835 40.5358 16.6361L42.4969 16.2439C42.3874 15.6965 42.1598 15.1864 41.8332 14.7169L40.1914 15.8591ZM40.544 16.6734C40.6144 16.967 40.6603 17.4003 40.6603 18H42.6603C42.6603 17.3197 42.6103 16.713 42.4887 16.2066L40.544 16.6734ZM40.6603 18V27H42.6603V18H40.6603ZM40.6923 23.64V21.168H38.6923V23.64H40.6923ZM39.6923 20.168C38.8668 20.168 38.1902 20.1841 37.6709 20.2181C37.2045 20.2487 36.723 20.2995 36.393 20.4315L37.1357 22.2885C37.1257 22.2925 37.2922 22.2473 37.8018 22.2139C38.2584 22.1839 38.8859 22.168 39.6923 22.168V20.168ZM36.4186 20.4217C36.0796 20.5466 35.7648 20.6846 35.4778 20.8376L36.4189 22.6024C36.6119 22.4994 36.8411 22.3974 37.11 22.2983L36.4186 20.4217ZM35.488 20.8322C34.6093 21.2879 34.3003 22.1609 34.3003 23.04H36.3003C36.3003 22.8155 36.3381 22.7032 36.36 22.6587C36.3745 22.6291 36.384 22.6206 36.4087 22.6078L35.488 20.8322ZM34.3003 23.04V23.592H36.3003V23.04H34.3003ZM34.3003 23.592C34.3003 24.4169 34.4145 25.2536 34.8603 25.848L36.4603 24.648C36.4261 24.6024 36.3003 24.3351 36.3003 23.592H34.3003ZM34.8603 25.848C35.1616 26.2496 35.5962 26.4581 35.9952 26.5705C36.4005 26.6847 36.8669 26.728 37.3643 26.728V24.728C36.9658 24.728 36.7002 24.6913 36.5375 24.6455C36.3685 24.5979 36.3991 24.5664 36.4603 24.648L34.8603 25.848ZM37.3643 26.728C38.3258 26.728 39.3288 26.5585 39.9523 25.8727L38.4724 24.5273C38.4559 24.5455 38.2269 24.728 37.3643 24.728V26.728ZM39.967 25.8562C40.4962 25.2475 40.6923 24.462 40.6923 23.64H38.6923C38.6923 24.162 38.5685 24.4165 38.4577 24.5438L39.967 25.8562ZM54.454 12.36H55.454V11.36H54.454V12.36ZM54.454 14.52H53.454V15.52H54.454V14.52ZM56.662 14.52H57.662V13.52H56.662V14.52ZM56.662 15.936V16.936H57.662V15.936H56.662ZM54.454 15.936V14.936H53.454V15.936H54.454ZM56.566 25.8L57.5564 25.6614L57.4094 24.6115L56.3699 24.8194L56.566 25.8ZM56.734 27L57.0503 27.9487L57.8398 27.6855L57.7244 26.8614L56.734 27ZM53.806 27.12L53.4757 28.0639L53.4827 28.0663L53.4898 28.0687L53.806 27.12ZM53.062 26.712L53.7347 25.9721L53.7347 25.9721L53.062 26.712ZM52.654 25.992L51.686 26.243L51.6908 26.2613L51.6962 26.2793L52.654 25.992ZM52.486 15.936H53.486V14.936H52.486V15.936ZM50.782 15.936H49.782V16.936H50.782V15.936ZM50.782 14.88L50.5753 13.9016L49.782 14.0692V14.88H50.782ZM52.486 14.52L52.6927 15.4984L53.1647 15.3987L53.3805 14.9672L52.486 14.52ZM53.566 12.36V11.36H52.948L52.6716 11.9128L53.566 12.36ZM53.454 12.36V14.52H55.454V12.36H53.454ZM54.454 15.52H56.662V13.52H54.454V15.52ZM55.662 14.52V15.936H57.662V14.52H55.662ZM56.662 14.936H54.454V16.936H56.662V14.936ZM53.454 15.936V24H55.454V15.936H53.454ZM53.454 24C53.454 24.7054 53.5194 25.3988 53.7756 25.9112L55.5645 25.0168C55.5327 24.9532 55.454 24.6706 55.454 24H53.454ZM53.7756 25.9112C54.1332 26.6264 54.8173 26.896 55.486 26.896V24.896C55.4018 24.896 55.405 24.8805 55.4499 24.9042C55.4731 24.9165 55.4989 24.935 55.5224 24.9594C55.5455 24.9834 55.5586 25.005 55.5645 25.0168L53.7756 25.9112ZM55.486 26.896C55.9377 26.896 56.3651 26.86 56.7621 26.7806L56.3699 24.8194C56.127 24.868 55.8343 24.896 55.486 24.896V26.896ZM55.5757 25.9386L55.7437 27.1386L57.7244 26.8614L57.5564 25.6614L55.5757 25.9386ZM56.4178 26.0513C55.9288 26.2143 55.4838 26.288 55.078 26.288V28.288C55.7283 28.288 56.3873 28.1697 57.0503 27.9487L56.4178 26.0513ZM55.078 26.288C54.63 26.288 54.3219 26.2379 54.1223 26.1713L53.4898 28.0687C53.9622 28.2261 54.5021 28.288 55.078 28.288V26.288ZM54.1364 26.1761C53.8932 26.091 53.7787 26.0121 53.7347 25.9721L52.3894 27.4519C52.6974 27.7319 53.0788 27.925 53.4757 28.0639L54.1364 26.1761ZM53.7347 25.9721C53.7368 25.974 53.6758 25.9177 53.6119 25.7047L51.6962 26.2793C51.8243 26.7063 52.0352 27.13 52.3894 27.4519L53.7347 25.9721ZM53.622 25.741C53.5433 25.4372 53.486 24.8783 53.486 24H51.486C51.486 24.9137 51.5408 25.6828 51.686 26.243L53.622 25.741ZM53.486 24V15.936H51.486V24H53.486ZM52.486 14.936H50.782V16.936H52.486V14.936ZM51.782 15.936V14.88H49.782V15.936H51.782ZM50.9887 15.8584L52.6927 15.4984L52.2793 13.5416L50.5753 13.9016L50.9887 15.8584ZM53.3805 14.9672L54.4605 12.8072L52.6716 11.9128L51.5916 14.0728L53.3805 14.9672ZM53.566 13.36H54.454V11.36H53.566V13.36ZM67.4834 20.4H66.4834V21.4H67.4834V20.4ZM70.3874 20.232L70.7331 21.1703L70.746 21.1656L70.7588 21.1605L70.3874 20.232ZM71.2274 19.848L70.7671 18.9602L70.7568 18.9656L71.2274 19.848ZM71.5154 16.32L70.7154 16.92L70.7154 16.92L71.5154 16.32ZM67.9634 16.392L68.7033 17.0647L68.7108 17.0565L68.718 17.0482L67.9634 16.392ZM67.6994 14.568L68.1002 15.4842L68.1128 15.4787L68.1252 15.4728L67.6994 14.568ZM68.6354 14.328L68.7259 15.3239L68.7483 15.3219L68.7705 15.3188L68.6354 14.328ZM71.9474 14.52L72.2472 13.566L72.2472 13.566L71.9474 14.52ZM73.1714 15.36L72.3394 15.9147L72.3528 15.9349L72.3672 15.9544L73.1714 15.36ZM73.6994 16.512L72.7188 16.7081L72.7235 16.7314L72.7293 16.7545L73.6994 16.512ZM73.7474 19.104L74.728 19.3001L74.7297 19.2911L73.7474 19.104ZM73.5074 19.944L72.5789 19.5726L72.568 19.5999L72.5587 19.6278L73.5074 19.944ZM73.0754 20.592L73.7511 21.3292L73.7537 21.3268L73.0754 20.592ZM72.5234 21.048L71.9352 20.2393L71.9167 20.2528L71.8987 20.2671L72.5234 21.048ZM71.7794 21.384L72.0219 22.3541L72.0381 22.3501L72.0541 22.3455L71.7794 21.384ZM70.9394 21.576L71.1355 22.5566L71.1355 22.5566L70.9394 21.576ZM69.9074 21.696L69.8362 20.6985L69.8362 20.6985L69.9074 21.696ZM67.4834 21.768V20.768H66.4834V21.768H67.4834ZM68.0114 25.272L67.3578 26.0288L67.3679 26.0375L67.3782 26.046L68.0114 25.272ZM73.1954 25.032L74.1478 24.7272L73.8138 23.6834L72.8049 24.1114L73.1954 25.032ZM73.5794 26.232L74.0854 27.0945L74.7758 26.6895L74.5318 25.9272L73.5794 26.232ZM67.7234 27.024L68.0677 26.0851L68.0586 26.0818L68.0494 26.0786L67.7234 27.024ZM66.7154 26.472L65.9806 27.1503L65.9942 27.165L66.0083 27.1791L66.7154 26.472ZM66.2114 25.896L66.9854 25.2628L66.9854 25.2628L66.2114 25.896ZM65.8514 25.128L64.8786 25.3596L64.8838 25.3813L64.8899 25.4027L65.8514 25.128ZM65.6594 24.264L64.6765 24.4483L64.6788 24.4601L65.6594 24.264ZM65.5634 23.208L66.5628 23.1723L66.5623 23.159L66.5615 23.1456L65.5634 23.208ZM65.5874 17.784L66.5726 17.9553L66.5726 17.9553L65.5874 17.784ZM65.7794 16.752L66.76 16.9481L66.7617 16.9391L65.7794 16.752ZM66.0434 16.008L66.8626 16.5815L66.8753 16.5634L66.8871 16.5449L66.0434 16.008ZM66.4274 15.408L65.6137 14.8268L65.5995 14.8467L65.5862 14.8672L66.4274 15.408ZM66.9794 14.904L66.5322 14.0096L66.5186 14.0163L66.5053 14.0235L66.9794 14.904ZM66.4834 17.928V20.4H68.4834V17.928H66.4834ZM67.4834 21.4C68.3076 21.4 68.9794 21.3859 69.4912 21.3563C69.9492 21.3298 70.4183 21.2863 70.7331 21.1703L70.0417 19.2937C70.0525 19.2897 69.8856 19.3302 69.3757 19.3597C68.9194 19.3861 68.2912 19.4 67.4834 19.4V21.4ZM70.7588 21.1605C71.1042 21.0223 71.4186 20.8793 71.698 20.7304L70.7568 18.9656C70.5562 19.0727 70.3106 19.1857 70.016 19.3035L70.7588 21.1605ZM71.6877 20.7358C72.5664 20.2801 72.8754 19.4071 72.8754 18.528H70.8754C70.8754 18.7525 70.8376 18.8648 70.8157 18.9093C70.8012 18.9389 70.7918 18.9474 70.7671 18.9602L71.6877 20.7358ZM72.8754 18.528V17.976H70.8754V18.528H72.8754ZM72.8754 17.976C72.8754 17.1511 72.7612 16.3144 72.3154 15.72L70.7154 16.92C70.7496 16.9656 70.8754 17.2329 70.8754 17.976H72.8754ZM72.3154 15.72C72.0117 15.315 71.5713 15.1077 71.1711 14.9965C70.763 14.8831 70.2917 14.84 69.7874 14.84V16.84C70.1951 16.84 70.4679 16.8769 70.6358 16.9235C70.8115 16.9723 70.7791 17.005 70.7154 16.92L72.3154 15.72ZM69.7874 14.84C68.8259 14.84 67.828 15.0237 67.2088 15.7358L68.718 17.0482C68.7388 17.0243 68.9569 16.84 69.7874 16.84V14.84ZM67.2235 15.7193C66.6781 16.3192 66.4834 17.1096 66.4834 17.928H68.4834C68.4834 17.4024 68.6087 17.1688 68.7033 17.0647L67.2235 15.7193ZM68.1252 15.4728C68.2749 15.4024 68.4702 15.3471 68.7259 15.3239L68.5449 13.3321C68.0966 13.3729 67.6679 13.4776 67.2736 13.6632L68.1252 15.4728ZM68.7705 15.3188C69.0557 15.2799 69.4989 15.256 70.1234 15.256V13.256C69.4679 13.256 68.9191 13.2801 68.5003 13.3372L68.7705 15.3188ZM70.1234 15.256C70.6895 15.256 71.1953 15.3318 71.6476 15.474L72.2472 13.566C71.5796 13.3562 70.8693 13.256 70.1234 13.256V15.256ZM71.6476 15.474C72.0501 15.6005 72.2411 15.7673 72.3394 15.9147L74.0035 14.8053C73.5897 14.1847 72.9647 13.7915 72.2472 13.566L71.6476 15.474ZM72.3672 15.9544C72.5626 16.2187 72.671 16.4689 72.7188 16.7081L74.68 16.3159C74.5678 15.7551 74.3242 15.2373 73.9756 14.7656L72.3672 15.9544ZM72.7293 16.7545C72.8006 17.04 72.8434 17.4032 72.8434 17.856H74.8434C74.8434 17.2848 74.7902 16.752 74.6695 16.2695L72.7293 16.7545ZM72.8434 17.856C72.8434 18.3146 72.8134 18.6633 72.7651 18.9169L74.7297 19.2911C74.8094 18.8727 74.8434 18.3894 74.8434 17.856H72.8434ZM72.7668 18.9079C72.7118 19.1828 72.6473 19.4018 72.5789 19.5726L74.4359 20.3154C74.5596 20.0062 74.655 19.6652 74.728 19.3001L72.7668 18.9079ZM72.5587 19.6278C72.5382 19.6893 72.4961 19.7658 72.3971 19.8572L73.7537 21.3268C74.0707 21.0342 74.3166 20.6787 74.4561 20.2602L72.5587 19.6278ZM72.3997 19.8548C72.2303 20.0101 72.0755 20.1373 71.9352 20.2393L73.1116 21.8567C73.3233 21.7027 73.5365 21.5259 73.7511 21.3292L72.3997 19.8548ZM71.8987 20.2671C71.9013 20.265 71.8769 20.2845 71.8058 20.3166C71.7365 20.3479 71.6383 20.3843 71.5047 20.4225L72.0541 22.3455C72.4403 22.2352 72.8363 22.0783 73.1481 21.8289L71.8987 20.2671ZM71.5369 20.4139C71.2274 20.4912 70.9635 20.5514 70.7433 20.5954L71.1355 22.5566C71.3953 22.5046 71.6915 22.4368 72.0219 22.3541L71.5369 20.4139ZM70.7433 20.5954C70.5653 20.631 70.2706 20.6675 69.8362 20.6985L69.9787 22.6935C70.4402 22.6605 70.8335 22.617 71.1355 22.5566L70.7433 20.5954ZM69.8362 20.6985C69.1951 20.7443 68.4122 20.768 67.4834 20.768V22.768C68.4426 22.768 69.2757 22.7437 69.9787 22.6935L69.8362 20.6985ZM66.4834 21.768V23.568H68.4834V21.768H66.4834ZM66.4834 23.568C66.4834 24.4758 66.6634 25.4291 67.3578 26.0288L68.665 24.5152C68.6554 24.5069 68.4834 24.3242 68.4834 23.568H66.4834ZM67.3782 26.046C67.9869 26.544 68.7951 26.704 69.6194 26.704V24.704C69.0037 24.704 68.7399 24.576 68.6446 24.498L67.3782 26.046ZM69.6194 26.704C71.0606 26.704 72.3885 26.4606 73.586 25.9526L72.8049 24.1114C71.8903 24.4994 70.8342 24.704 69.6194 24.704V26.704ZM72.243 25.3368L72.627 26.5368L74.5318 25.9272L74.1478 24.7272L72.243 25.3368ZM73.0734 25.3695C72.0341 25.9792 70.8821 26.288 69.5954 26.288V28.288C71.2207 28.288 72.7247 27.8928 74.0854 27.0945L73.0734 25.3695ZM69.5954 26.288C68.8918 26.288 68.3967 26.2058 68.0677 26.0851L67.3792 27.9629C68.0102 28.1942 68.763 28.288 69.5954 28.288V26.288ZM68.0494 26.0786C67.6449 25.9391 67.4744 25.8168 67.4225 25.7649L66.0083 27.1791C66.3724 27.5432 66.8739 27.7889 67.3974 27.9694L68.0494 26.0786ZM67.4502 25.7937C67.2686 25.597 67.1142 25.4202 66.9854 25.2628L65.4374 26.5292C65.5966 26.7238 65.7782 26.931 65.9806 27.1503L67.4502 25.7937ZM66.9854 25.2628C66.9613 25.2334 66.8895 25.1214 66.8129 24.8533L64.8899 25.4027C65.0053 25.8066 65.1735 26.2066 65.4374 26.5292L66.9854 25.2628ZM66.8242 24.8964C66.746 24.5678 66.6849 24.2923 66.64 24.0679L64.6788 24.4601C64.7299 24.7157 64.7968 25.0162 64.8786 25.3596L66.8242 24.8964ZM66.6423 24.0797C66.6077 23.8954 66.5781 23.6005 66.5628 23.1723L64.564 23.2437C64.5808 23.7115 64.6151 24.1206 64.6765 24.4483L66.6423 24.0797ZM66.5615 23.1456C66.5146 22.3955 66.4914 21.6965 66.4914 21.048H64.4914C64.4914 21.7435 64.5162 22.4845 64.5654 23.2704L66.5615 23.1456ZM66.4914 21.048V19.608H64.4914V21.048H66.4914ZM66.4914 19.608C66.4914 18.7639 66.5246 18.2312 66.5726 17.9553L64.6022 17.6127C64.5222 18.0728 64.4914 18.7561 64.4914 19.608H66.4914ZM66.5726 17.9553C66.6354 17.5945 66.6978 17.2588 66.76 16.9481L64.7988 16.5559C64.733 16.8852 64.6674 17.2375 64.6022 17.6127L66.5726 17.9553ZM66.7617 16.9391C66.7869 16.8072 66.813 16.7126 66.8358 16.6484C66.8594 16.5819 66.8726 16.5672 66.8626 16.5815L65.2242 15.4345C64.9916 15.7667 64.8706 16.179 64.7971 16.5649L66.7617 16.9391ZM66.8871 16.5449C66.9981 16.3705 67.1252 16.1718 67.2686 15.9488L65.5862 14.8672C65.4416 15.0922 65.3128 15.2935 65.1997 15.4711L66.8871 16.5449ZM67.2411 15.9892C67.3269 15.8691 67.4007 15.8129 67.4535 15.7845L66.5053 14.0235C66.1422 14.2191 65.8479 14.4989 65.6137 14.8268L67.2411 15.9892ZM67.4266 15.7984C67.6337 15.6949 67.8581 15.5901 68.1002 15.4842L67.2986 13.6518C67.0287 13.7699 66.7731 13.8891 66.5322 14.0096L67.4266 15.7984ZM85.2803 27V28H86.2803V27H85.2803ZM83.3123 27H82.3123V28H83.3123V27ZM83.3123 14.52V13.52H82.3123V14.52H83.3123ZM84.3923 14.52L85.3596 14.2663L85.1639 13.52H84.3923V14.52ZM84.7763 15.984L83.8091 16.2377L84.2442 17.8966L85.4736 16.7009L84.7763 15.984ZM88.9523 14.256L89.9462 14.3664L90.0708 13.2449L88.9424 13.256L88.9523 14.256ZM88.7603 15.984V16.984H89.6554L89.7542 16.0944L88.7603 15.984ZM85.2803 17.28L84.5732 16.5729L84.2803 16.8658V17.28H85.2803ZM85.2803 26H83.3123V28H85.2803V26ZM84.3123 27V14.52H82.3123V27H84.3123ZM83.3123 15.52H84.3923V13.52H83.3123V15.52ZM83.4251 14.7737L83.8091 16.2377L85.7436 15.7303L85.3596 14.2663L83.4251 14.7737ZM85.4736 16.7009C86.459 15.7424 87.6056 15.2694 88.9622 15.256L88.9424 13.256C87.0671 13.2746 85.4297 13.9536 84.0791 15.2671L85.4736 16.7009ZM87.9585 14.1456L87.7665 15.8736L89.7542 16.0944L89.9462 14.3664L87.9585 14.1456ZM88.7603 14.984C87.0936 14.984 85.6601 15.486 84.5732 16.5729L85.9875 17.9871C86.6286 17.346 87.515 16.984 88.7603 16.984V14.984ZM84.2803 17.28V27H86.2803V17.28H84.2803ZM96.2782 29.928L96.4951 28.9518L95.5961 28.752L95.3231 29.6316L96.2782 29.928ZM99.0142 29.64L98.4361 28.824L98.4167 28.8378L98.3978 28.8525L99.0142 29.64ZM99.8542 28.152L100.826 28.3895L100.827 28.3824L100.829 28.3754L99.8542 28.152ZM100.118 27L101.093 27.2234L101.373 26H100.118V27ZM98.7742 27L97.8002 27.2266L97.9801 28H98.7742V27ZM95.8702 14.52V13.52H94.6107L94.8962 14.7466L95.8702 14.52ZM97.8142 14.52L98.7906 14.3042L98.6173 13.52H97.8142V14.52ZM100.286 25.704L99.3097 25.9198L99.4831 26.704H100.286V25.704ZM100.43 25.704V26.704H101.233L101.407 25.9198L100.43 25.704ZM102.902 14.52V13.52H102.099L101.926 14.3042L102.902 14.52ZM104.846 14.52L105.82 14.7475L106.107 13.52H104.846V14.52ZM101.678 28.08L100.704 27.8525L100.704 27.8532L101.678 28.08ZM100.358 30.744L99.651 30.0368L99.6417 30.0464L100.358 30.744ZM95.8462 31.32L94.8911 31.0236L94.6292 31.8676L95.4346 32.2314L95.8462 31.32ZM96.0612 30.9042C96.5745 31.0183 97.1203 31.072 97.6942 31.072V29.072C97.244 29.072 96.8458 29.0297 96.4951 28.9518L96.0612 30.9042ZM97.6942 31.072C98.4069 31.072 99.0695 30.8666 99.6305 30.4275L98.3978 28.8525C98.2229 28.9894 98.0055 29.072 97.6942 29.072V31.072ZM99.5922 30.456C100.258 29.9841 100.624 29.2157 100.826 28.3895L98.8828 27.9145C98.7327 28.5283 98.5379 28.7519 98.4361 28.824L99.5922 30.456ZM100.829 28.3754L101.093 27.2234L99.1434 26.7766L98.8794 27.9286L100.829 28.3754ZM100.118 26H98.7742V28H100.118V26ZM99.7481 26.7734L96.8441 14.2934L94.8962 14.7466L97.8002 27.2266L99.7481 26.7734ZM95.8702 15.52H97.8142V13.52H95.8702V15.52ZM96.8377 14.7358L99.3097 25.9198L101.263 25.4882L98.7906 14.3042L96.8377 14.7358ZM100.286 26.704H100.43V24.704H100.286V26.704ZM101.407 25.9198L103.879 14.7358L101.926 14.3042L99.4537 25.4882L101.407 25.9198ZM102.902 15.52H104.846V13.52H102.902V15.52ZM103.872 14.2925L100.704 27.8525L102.652 28.3075L105.82 14.7475L103.872 14.2925ZM100.704 27.8532C100.459 28.9081 100.085 29.6033 99.651 30.0369L101.065 31.4511C101.848 30.6687 102.354 29.5879 102.652 28.3068L100.704 27.8532ZM99.6417 30.0464C99.3192 30.3776 98.6887 30.656 97.5022 30.656V32.656C98.9396 32.656 100.213 32.3264 101.075 31.4416L99.6417 30.0464ZM97.5022 30.656C97.0194 30.656 96.61 30.5677 96.2577 30.4086L95.4346 32.2314C96.0743 32.5203 96.7689 32.656 97.5022 32.656V30.656ZM96.8012 31.6164L97.2332 30.2244L95.3231 29.6316L94.8911 31.0236L96.8012 31.6164Z" fill="black"/>
<rect x="63" y="36" width="46" height="14" fill="white"/>
<path d="M66.4003 38.6H68.3923C69.2643 38.6 69.8763 38.784 70.2283 39.152C70.5803 39.512 70.7563 40.14 70.7563 41.036C70.7563 41.932 70.4763 42.516 69.9163 42.788C70.2923 42.924 70.5643 43.14 70.7323 43.436C70.9083 43.724 70.9963 44.132 70.9963 44.66C70.9963 45.492 70.8043 46.092 70.4203 46.46C70.0443 46.82 69.3883 47 68.4523 47H66.4003V38.6ZM69.9523 44.888V44.42C69.9523 43.924 69.8883 43.62 69.7603 43.508C69.5443 43.332 69.3203 43.232 69.0883 43.208C68.8563 43.176 68.6083 43.16 68.3443 43.16H67.4323V46.148H68.4643C69.0003 46.148 69.3923 46.072 69.6403 45.92C69.8163 45.816 69.9163 45.616 69.9403 45.32C69.9483 45.224 69.9523 45.08 69.9523 44.888ZM69.7123 41.204V40.736C69.7123 40.16 69.6163 39.808 69.4243 39.68C69.2083 39.528 68.8603 39.452 68.3803 39.452H67.4323V42.476H68.2603C68.7803 42.476 69.1603 42.4 69.4003 42.248C69.5763 42.144 69.6763 41.936 69.7003 41.624C69.7083 41.536 69.7123 41.396 69.7123 41.204ZM80.1265 46.868C79.9345 46.94 79.6985 47.004 79.4185 47.06C79.1465 47.116 78.8505 47.144 78.5305 47.144C78.2105 47.144 77.9425 47.132 77.7265 47.108C77.5185 47.092 77.3305 47.056 77.1625 47C76.9945 46.936 76.8465 46.876 76.7185 46.82C76.5905 46.764 76.4745 46.668 76.3705 46.532C76.2745 46.396 76.1945 46.28 76.1305 46.184C76.0665 46.088 76.0105 45.932 75.9625 45.716C75.9225 45.5 75.8905 45.32 75.8665 45.176C75.8425 45.024 75.8265 44.792 75.8185 44.48C75.8025 43.872 75.7945 43.3 75.7945 42.764C75.7945 42.228 75.7985 41.824 75.8065 41.552C75.8145 41.28 75.8305 40.952 75.8545 40.568C75.8865 40.184 75.9385 39.912 76.0105 39.752C76.0825 39.584 76.1785 39.396 76.2985 39.188C76.4185 38.972 76.5745 38.824 76.7665 38.744C77.2785 38.552 77.8185 38.456 78.3865 38.456C78.9545 38.456 79.4025 38.516 79.7305 38.636C80.0665 38.748 80.3305 38.884 80.5225 39.044C80.7145 39.204 80.8505 39.5 80.9305 39.932C81.0185 40.364 81.0705 40.756 81.0865 41.108C81.1025 41.46 81.1105 41.976 81.1105 42.656C81.1105 43.328 81.1065 43.8 81.0985 44.072C81.0905 44.344 81.0705 44.672 81.0385 45.056C81.0145 45.44 80.9665 45.716 80.8945 45.884C80.8225 46.044 80.7265 46.228 80.6065 46.436C80.4865 46.644 80.3265 46.788 80.1265 46.868ZM80.0665 44.684V40.916C80.0665 40.276 79.9985 39.888 79.8625 39.752C79.6625 39.536 79.4425 39.408 79.2025 39.368C78.9705 39.328 78.7225 39.308 78.4585 39.308C78.1945 39.308 77.9665 39.324 77.7745 39.356C77.5825 39.388 77.4265 39.444 77.3065 39.524C77.1945 39.604 77.1025 39.68 77.0305 39.752C76.9665 39.824 76.9185 39.936 76.8865 40.088C76.8545 40.28 76.8385 40.556 76.8385 40.916V44.684C76.8385 45.324 76.9025 45.712 77.0305 45.848C77.2385 46.064 77.4625 46.192 77.7025 46.232C77.9425 46.272 78.1945 46.292 78.4585 46.292C78.7225 46.292 78.9465 46.276 79.1305 46.244C79.3225 46.212 79.4745 46.156 79.5865 46.076C79.7065 45.996 79.7985 45.92 79.8625 45.848C79.9345 45.776 79.9825 45.664 80.0065 45.512C80.0465 45.32 80.0665 45.044 80.0665 44.684ZM86.0878 38.6H88.0798C88.9518 38.6 89.5638 38.784 89.9158 39.152C90.2678 39.512 90.4438 40.14 90.4438 41.036C90.4438 41.932 90.1638 42.516 89.6038 42.788C89.9798 42.924 90.2518 43.14 90.4198 43.436C90.5958 43.724 90.6838 44.132 90.6838 44.66C90.6838 45.492 90.4918 46.092 90.1078 46.46C89.7318 46.82 89.0758 47 88.1398 47H86.0878V38.6ZM89.6398 44.888V44.42C89.6398 43.924 89.5758 43.62 89.4478 43.508C89.2318 43.332 89.0078 43.232 88.7758 43.208C88.5438 43.176 88.2958 43.16 88.0318 43.16H87.1198V46.148H88.1518C88.6878 46.148 89.0798 46.072 89.3278 45.92C89.5038 45.816 89.6038 45.616 89.6278 45.32C89.6358 45.224 89.6398 45.08 89.6398 44.888ZM89.3998 41.204V40.736C89.3998 40.16 89.3038 39.808 89.1118 39.68C88.8958 39.528 88.5478 39.452 88.0678 39.452H87.1198V42.476H87.9478C88.4678 42.476 88.8478 42.4 89.0878 42.248C89.2638 42.144 89.3638 41.936 89.3878 41.624C89.3958 41.536 89.3998 41.396 89.3998 41.204ZM95.686 38.192C95.87 38.192 95.99 38.196 96.046 38.204C96.11 38.212 96.178 38.236 96.25 38.276C96.378 38.348 96.442 38.54 96.442 38.852C96.442 39.188 96.31 39.568 96.046 39.992L95.398 41.012L94.858 40.724L95.35 39.488C95.166 39.424 95.074 39.212 95.074 38.852C95.074 38.54 95.138 38.348 95.266 38.276C95.37 38.22 95.51 38.192 95.686 38.192ZM105.017 44.708C105.017 45.46 104.837 46.056 104.477 46.496C104.117 46.928 103.525 47.144 102.701 47.144C101.885 47.144 101.137 46.996 100.457 46.7L100.673 45.956C101.313 46.18 101.969 46.292 102.641 46.292C103.113 46.292 103.457 46.176 103.673 45.944C103.897 45.712 104.009 45.356 104.009 44.876C104.009 44.396 103.949 44.032 103.829 43.784C103.709 43.536 103.457 43.384 103.073 43.328L101.885 43.16C101.325 43.072 100.949 42.844 100.757 42.476C100.573 42.108 100.481 41.552 100.481 40.808C100.481 40.064 100.673 39.488 101.057 39.08C101.449 38.664 101.985 38.456 102.665 38.456C103.353 38.456 104.041 38.584 104.729 38.84L104.513 39.56C103.913 39.392 103.369 39.308 102.881 39.308C102.401 39.308 102.049 39.408 101.825 39.608C101.601 39.8 101.489 40.164 101.489 40.7C101.489 41.236 101.545 41.62 101.657 41.852C101.777 42.084 102.013 42.224 102.365 42.272L103.493 42.44C104.005 42.52 104.385 42.732 104.633 43.076C104.889 43.412 105.017 43.956 105.017 44.708Z" fill="#262626"/>
</svg>
